<svg width="89" height="88" viewBox="0 0 89 88" fill="none" xmlns="http://www.w3.org/2000/svg">
<g filter="url(#filter0_d_7540_78058)">
<rect x="8.23047" y="6.99805" width="72.0013" height="72.0013" rx="36.0007" fill="#1983CF"/>
<path fill-rule="evenodd" clip-rule="evenodd" d="M39.7313 27.998L37.4812 32.4981L31.4825 32.4981C30.2398 32.4981 29.2324 33.5055 29.2324 34.7482V52.7485C29.2324 53.9912 30.2398 54.9985 31.4825 54.9985H56.9829C58.2256 54.9985 59.233 53.9912 59.233 52.7485V34.7482C59.233 33.5055 58.2256 32.4981 56.9829 32.4981L50.9815 32.4981L48.7314 27.998H39.7313ZM44.2318 51.9983C48.374 51.9983 51.7319 48.6404 51.7319 44.4981C51.7319 40.3559 48.374 36.998 44.2318 36.998C40.0896 36.998 36.7317 40.3559 36.7317 44.4981C36.7317 48.6404 40.0896 51.9983 44.2318 51.9983Z" fill="white"/>
<path d="M37.4812 32.4981V33.2481C37.7653 33.2481 38.025 33.0876 38.1521 32.8335L37.4812 32.4981ZM39.7313 27.998V27.248C39.4472 27.248 39.1875 27.4085 39.0604 27.6626L39.7313 27.998ZM31.4825 32.4981V33.2481V32.4981ZM56.9829 32.4981V33.2481V32.4981ZM50.9815 32.4981L50.3106 32.8335C50.4377 33.0876 50.6974 33.2481 50.9815 33.2481V32.4981ZM48.7314 27.998L49.4023 27.6626C49.2752 27.4085 49.0155 27.248 48.7314 27.248V27.998ZM38.1521 32.8335L40.4021 28.3335L39.0604 27.6626L36.8104 32.1627L38.1521 32.8335ZM31.4825 33.2481L37.4812 33.2481V31.7481L31.4825 31.7481V33.2481ZM29.9824 34.7482C29.9824 33.9197 30.654 33.2481 31.4825 33.2481V31.7481C29.8256 31.7481 28.4824 33.0913 28.4824 34.7482H29.9824ZM29.9824 52.7485V34.7482H28.4824V52.7485H29.9824ZM31.4825 54.2485C30.654 54.2485 29.9824 53.5769 29.9824 52.7485H28.4824C28.4824 54.4054 29.8256 55.7486 31.4825 55.7486V54.2485ZM56.9829 54.2485H31.4825V55.7486H56.9829V54.2485ZM58.483 52.7485C58.483 53.5769 57.8114 54.2485 56.9829 54.2485V55.7486C58.6398 55.7486 59.983 54.4054 59.983 52.7485H58.483ZM58.483 34.7482V52.7485H59.983V34.7482H58.483ZM56.9829 33.2481C57.8114 33.2481 58.483 33.9197 58.483 34.7482H59.983C59.983 33.0913 58.6398 31.7481 56.9829 31.7481V33.2481ZM50.9815 33.2481L56.9829 33.2481V31.7481L50.9815 31.7481V33.2481ZM48.0606 28.3335L50.3106 32.8335L51.6523 32.1627L49.4023 27.6626L48.0606 28.3335ZM39.7313 28.7481H48.7314V27.248H39.7313V28.7481ZM50.9819 44.4981C50.9819 48.2262 47.9598 51.2483 44.2318 51.2483V52.7483C48.7882 52.7483 52.4819 49.0546 52.4819 44.4981H50.9819ZM44.2318 37.748C47.9598 37.748 50.9819 40.7701 50.9819 44.4981H52.4819C52.4819 39.9417 48.7882 36.248 44.2318 36.248V37.748ZM37.4817 44.4981C37.4817 40.7701 40.5038 37.748 44.2318 37.748V36.248C39.6753 36.248 35.9816 39.9417 35.9816 44.4981H37.4817ZM44.2318 51.2483C40.5038 51.2483 37.4817 48.2262 37.4817 44.4981H35.9816C35.9816 49.0546 39.6753 52.7483 44.2318 52.7483V51.2483Z" fill="white"/>
</g>
<defs>
<filter id="filter0_d_7540_78058" x="0.230469" y="-0.00195312" width="88.001" height="88.002" filterUnits="userSpaceOnUse" color-interpolation-filters="sRGB">
<feFlood flood-opacity="0" result="BackgroundImageFix"/>
<feColorMatrix in="SourceAlpha" type="matrix" values="0 0 0 0 0 0 0 0 0 0 0 0 0 0 0 0 0 0 127 0" result="hardAlpha"/>
<feOffset dy="1"/>
<feGaussianBlur stdDeviation="4"/>
<feComposite in2="hardAlpha" operator="out"/>
<feColorMatrix type="matrix" values="0 0 0 0 0.176471 0 0 0 0 0.215686 0 0 0 0 0.25098 0 0 0 0.2 0"/>
<feBlend mode="normal" in2="BackgroundImageFix" result="effect1_dropShadow_7540_78058"/>
<feBlend mode="normal" in="SourceGraphic" in2="effect1_dropShadow_7540_78058" result="shape"/>
</filter>
</defs>
</svg>
