<svg width="48" height="48" viewBox="0 0 48 48" fill="none" xmlns="http://www.w3.org/2000/svg">
<g clip-path="url(#clip0_7555_143122)">
<path d="M34.309 24.7264L25.4783 38.669C24.884 39.5357 24.0244 40.0024 23.1413 40.0024C22.785 40.0024 22.4246 39.9264 22.078 39.7704C20.8057 39.1997 20.1895 37.7424 20.6145 36.3037L22.2706 29.3357H17.0024C15.5169 29.3357 14.1634 28.545 13.4674 27.273C12.7714 26.001 12.8581 24.469 13.6916 23.2784L22.5196 9.33303C23.3545 8.11703 24.7107 7.68903 25.9212 8.2317C27.1935 8.80236 27.8097 10.2597 27.3847 11.6984L25.7272 18.6677L30.9995 18.6717C32.4837 18.6717 33.8372 19.4624 34.5332 20.7344C35.2278 22.005 35.1425 23.537 34.309 24.7277V24.7264Z" fill="#404040"/>
</g>
<defs>
<clipPath id="clip0_7555_143122">
<rect width="32" height="32" fill="white" transform="translate(8 8)"/>
</clipPath>
</defs>
</svg>
