<svg width="48" height="48" viewBox="0 0 48 48" fill="none" xmlns="http://www.w3.org/2000/svg">
<g clip-path="url(#clip0_7555_143121)">
<path d="M39.2623 38.3203L36.0223 28.7603C35.601 27.5376 34.5463 26.7483 33.3316 26.7483C32.117 26.7483 31.0623 27.539 30.641 28.7656L27.4023 38.3203C27.1663 39.0176 27.5396 39.775 28.237 40.0123C28.9356 40.2496 29.6903 39.8736 29.9276 39.1776L30.553 37.3336H36.1103L36.7356 39.1776C36.925 39.7323 37.4423 40.083 37.9983 40.083C38.1396 40.083 38.285 40.0603 38.4263 40.0123C39.1236 39.775 39.4983 39.019 39.261 38.3203H39.2623ZM31.457 34.667L33.165 29.6283C33.265 29.3337 33.401 29.339 33.4983 29.623L35.2076 34.667H31.457ZM28.6596 24.7283L20.0996 38.671C19.5236 39.5376 18.6903 40.0043 17.8343 40.0043C17.489 40.0043 17.1396 39.9283 16.8036 39.7723C15.5703 39.2017 14.973 37.7443 15.385 36.3056L16.9903 29.3377H11.8836C10.4436 29.3377 9.13164 28.547 8.45698 27.275C7.78231 26.003 7.86631 24.471 8.67431 23.2803L17.2316 9.33498C18.041 8.11898 19.3556 7.69098 20.529 8.23365C21.7623 8.80432 22.3596 10.2616 21.9476 11.7003L20.341 18.6696L25.4516 18.6736C26.8903 18.6736 28.2023 19.4643 28.877 20.7363C29.5503 22.007 29.4676 23.539 28.6596 24.7296V24.7283Z" fill="#404040"/>
</g>
<defs>
<clipPath id="clip0_7555_143121">
<rect width="32" height="32" fill="white" transform="translate(8 8)"/>
</clipPath>
</defs>
</svg>
