<svg width="48" height="48" viewBox="0 0 48 48" fill="none" xmlns="http://www.w3.org/2000/svg">
<path fill-rule="evenodd" clip-rule="evenodd" d="M25.0004 8C25.0004 7.44772 24.5526 7 24.0004 7C23.4481 7 23.0004 7.44772 23.0004 8V14C23.0004 14.5523 23.4481 15 24.0004 15C24.5526 15 25.0004 14.5523 25.0004 14V8ZM12.2814 20.2481C12.1322 19.0544 13.0629 18 14.2659 18H33.7348C34.9378 18 35.8686 19.0544 35.7193 20.2481L35.3288 23.3721C35.1412 24.8734 33.865 26 32.352 26H15.6487C14.1357 26 12.8595 24.8734 12.6719 23.3721L12.2814 20.2481ZM18.0004 38V28H30.0004V38C30.0004 39.1046 29.1049 40 28.0004 40H20.0004C18.8958 40 18.0004 39.1046 18.0004 38ZM34.8286 10.1718C35.2191 10.5623 35.2191 11.1955 34.8286 11.586L31.293 15.1215C30.9025 15.5121 30.2693 15.5121 29.8788 15.1215C29.4883 14.731 29.4883 14.0979 29.8788 13.7073L33.4143 10.1718C33.8049 9.78128 34.438 9.78128 34.8286 10.1718ZM14.5864 10.1718C14.1958 9.78128 13.5627 9.78128 13.1722 10.1718C12.7816 10.5623 12.7816 11.1955 13.1722 11.586L16.7077 15.1215C17.0982 15.5121 17.7314 15.5121 18.1219 15.1215C18.5124 14.731 18.5124 14.0979 18.1219 13.7073L14.5864 10.1718Z" fill="#404040"/>
</svg>
