<svg width="48" height="48" viewBox="0 0 48 48" fill="none" xmlns="http://www.w3.org/2000/svg">
<g clip-path="url(#clip0_7555_143123)">
<path d="M39.6097 37.7243L31.187 29.3017L33.9937 24.7283C34.8017 23.5363 34.8843 22.007 34.211 20.735C33.5363 19.463 32.223 18.6723 30.7857 18.6723L25.675 18.6683L27.2817 11.699C27.6937 10.2617 27.0963 8.803 25.863 8.23233C24.6897 7.68967 23.3763 8.11767 22.5657 9.33367L18.251 16.3643L10.2763 8.391C9.755 7.86967 8.91233 7.86967 8.391 8.391C7.86967 8.91233 7.86967 9.755 8.391 10.2763L37.7243 39.6097C37.9843 39.8697 38.3257 40.0003 38.667 40.0003C39.0083 40.0003 39.3497 39.8697 39.6097 39.6097C40.131 39.0883 40.131 38.2457 39.6097 37.7243ZM28.315 33.971L25.4297 38.6697C24.8537 39.5363 24.0203 40.003 23.1643 40.003C22.819 40.003 22.4697 39.927 22.1337 39.771C20.9003 39.2003 20.303 37.743 20.715 36.3043L22.3203 29.3363H17.2137C15.7737 29.3363 14.4617 28.5457 13.787 27.2737C13.1123 26.0017 13.1963 24.4697 14.0043 23.279L15.3817 21.035L28.3163 33.9697L28.315 33.971Z" fill="#404040"/>
</g>
<defs>
<clipPath id="clip0_7555_143123">
<rect width="32" height="32" fill="white" transform="translate(8 8)"/>
</clipPath>
</defs>
</svg>
